<svg width="92.99999999999999" height="38" xmlns="http://www.w3.org/2000/svg">
 <metadata id="metadata23">image/svg+xml</metadata>

 <g>
  <title>background</title>
  <rect fill="none" id="canvas_background" height="40" width="95" y="-1" x="-1"/>
 </g>
 <g>
  <title>Layer 1</title>
  <g transform="matrix(0.11328205,0,0,0.11328205,14.224991,11.68807) " id="g16">
   <polygon fill="#34495e" id="polygon2" points="110.87167358398438,-17.128860473632812 -28.859336853027344,-17.128860473632812 41.00666809082031,52.73713684082031 "/>
   <polygon fill="#34495e" id="polygon4" points="-111.77533435821533,-100.04486083984375 -41.401336669921875,-29.66986083984375 111.57066345214844,-29.66986083984375 41.19566345214844,-100.04486083984375 "/>
   <rect fill="#34495e" id="rect6" height="108.167" width="107.676" transform="matrix(0.7071,0.7071,-0.7071,0.7071,186.4727,-127.2386) " y="121.95675" x="36.9391"/>
   <polygon fill="#34495e" id="polygon8" points="202.65567016601562,-100.04486083984375 58.9306640625,-100.04486083984375 202.65567016601562,43.67913818359375 "/>
   <polygon fill="#34495e" id="polygon10" points="-120.642333984375,-91.17686080932617 -120.642333984375,214.38714599609375 32.138671875,61.60414123535156 "/>
   <polygon fill="#34495e" id="polygon12" points="202.65567016601562,214.38714599609375 202.65567016601562,78.83413696289062 134.87966918945312,146.61013793945312 "/>
   <polygon fill="#34495e" id="polygon14" points="-111.77333354949951,223.25314331054688 193.78765869140625,223.25314331054688 41.00666809082031,70.47213745117188 "/>
  </g>
  <g font-style="normal" font-weight="normal" font-size="30.56371px" font-family="'Source Sans Pro'" text-anchor="start" fill="#34495e" stroke-width="0.76409" id="text832">
   <path fill="#34495e" stroke-width="0.76409" id="path835" d="m54.63872,29.73077q-1.49762,0 -2.81186,-0.51958q-1.28368,-0.55015 -2.26172,-1.52818q-0.94747,-1.00861 -1.49762,-2.4451q-0.55015,-1.4365 -0.55015,-3.27032q0,-1.83382 0.55015,-3.27032q0.58071,-1.46705 1.49762,-2.47566q0.94748,-1.0086 2.13946,-1.52818q1.19199,-0.55015 2.47566,-0.55015q1.40593,0 2.50623,0.48902q1.13086,0.48902 1.86439,1.40593q0.76409,0.91691 1.16142,2.20059q0.39732,1.28367 0.39732,2.87299q0,0.39733 -0.03056,0.79465q0,0.36677 -0.06113,0.64184l-10.0249,0q0.15282,2.38397 1.46706,3.7899q1.34481,1.37537 3.48427,1.37537q1.06973,0 1.95607,-0.30564q0.91691,-0.3362 1.74214,-0.85578l0.88634,1.65044q-0.97804,0.61127 -2.17002,1.06973q-1.19199,0.45845 -2.72017,0.45845zm-4.67625,-8.98573l7.94657,0q0,-2.26171 -0.97804,-3.42313q-0.94748,-1.19199 -2.68961,-1.19199q-0.79466,0 -1.52818,0.30564q-0.70297,0.30564 -1.28368,0.91691q-0.58071,0.58071 -0.97804,1.4365q-0.36676,0.85578 -0.48902,1.95607z"/>
   <path fill="#34495e" stroke-width="0.76409" id="path837" d="m66.43918,29.73077q-1.4365,0 -2.04777,-0.85578q-0.61127,-0.85578 -0.61127,-2.50622l0,-18.76612l2.50622,0l0,18.9495q0,0.61127 0.21395,0.85578q0.21394,0.24451 0.48902,0.24451q0.12225,0 0.21394,0q0.12226,0 0.3362,-0.06113l0.3362,1.89495q-0.24451,0.12226 -0.58071,0.18338q-0.3362,0.06113 -0.85578,0.06113z"/>
   <path fill="#34495e" stroke-width="0.76409" id="path839" d="m71.60015,29.36401l0,-14.85397l2.07833,0l0.21395,2.13946l0.09169,0q0.97803,-1.06973 2.10889,-1.77269q1.16142,-0.73353 2.50623,-0.73353q1.71156,0 2.65904,0.76409q0.97804,0.73353 1.43649,2.07834q1.16143,-1.28368 2.32285,-2.04777q1.19198,-0.79466 2.56735,-0.79466q2.29228,0 3.39257,1.46706q1.13086,1.46706 1.13086,4.34005l0,9.41362l-2.50623,0l0,-9.07742q0,-2.1089 -0.6724,-3.02581q-0.6724,-0.94748 -2.07833,-0.94748q-1.68101,0 -3.72877,2.29228l0,10.75843l-2.50623,0l0,-9.07742q0,-2.1089 -0.6724,-3.02581q-0.6724,-0.94748 -2.1089,-0.94748q-1.681,0 -3.72877,2.29228l0,10.75843l-2.50622,0z"/>
  </g>
 </g>
</svg>